<?xml version="1.0" encoding="UTF-8"?>
<svg version="1.1" xmlns="http://www.w3.org/2000/svg" width="1200" height="1200">
<path d="M0 0 C396 0 792 0 1200 0 C1200 396 1200 792 1200 1200 C804 1200 408 1200 0 1200 C0 804 0 408 0 0 Z " fill="#FEFEFE" transform="translate(0,0)"/>
<path d="M0 0 C6.79915733 5.4797169 9.50420758 12.55945704 11 21 C12.22767803 33.38101715 11.10292234 44.61171984 3.7421875 54.95703125 C-0.92204932 60.42652868 -6.75705726 64.47171748 -13.98046875 65.37109375 C-15.03878906 65.39300781 -16.09710937 65.41492188 -17.1875 65.4375 C-18.75564453 65.49744141 -18.75564453 65.49744141 -20.35546875 65.55859375 C-24 65 -24 65 -34 60 C-34 68.58 -34 77.16 -34 86 C-39.28 86 -44.56 86 -50 86 C-50 56.63 -50 27.26 -50 -3 C-46.04 -3 -42.08 -3 -38 -3 C-35.64046906 -0.64046906 -35.50858587 0.77895617 -35 4 C-34.113125 3.401875 -33.22625 2.80375 -32.3125 2.1875 C-22.0718763 -4.57517603 -11.00295721 -7.30063891 0 0 Z " fill="#280C4B" transform="translate(937,552)"/>
<path d="M0 0 C5.94 0 11.88 0 18 0 C18 13.2 18 26.4 18 40 C32.52 40 47.04 40 62 40 C62 26.8 62 13.6 62 0 C67.94 0 73.88 0 80 0 C80 31.02 80 62.04 80 94 C74.06 94 68.12 94 62 94 C62 80.14 62 66.28 62 52 C47.48 52 32.96 52 18 52 C18 65.86 18 79.72 18 94 C12.06 94 6.12 94 0 94 C0 62.98 0 31.96 0 0 Z " fill="#280B4A" transform="translate(345,522)"/>
<path d="M0 0 C7.82331834 4.91600409 13.59192108 10.5043025 16.3125 19.453125 C16.50199219 20.0409375 16.69148438 20.62875 16.88671875 21.234375 C19.14491198 33.00184065 17.41931595 44.64514007 10.74609375 54.60546875 C5.96182603 60.77156856 -0.0683262 64.6895191 -7.6875 66.453125 C-19.48807533 67.62719239 -29.05298212 66.47866079 -38.5 58.828125 C-44.83074828 52.84472751 -48.37200601 45.38207207 -48.92578125 36.73046875 C-49.21510742 25.53974574 -48.36709339 16.59796704 -41.0625 7.578125 C-30.93695647 -3.02235022 -13.36002048 -6.40919901 0 0 Z " fill="#280C4B" transform="translate(1015.6875,550.546875)"/>
<path d="M0 0 C0.82628906 0.39832031 1.65257812 0.79664063 2.50390625 1.20703125 C8.82755359 4.48266078 8.82755359 4.48266078 10 8 C9.00390625 10.26171875 9.00390625 10.26171875 7.5625 12.6875 C7.08941406 13.49574219 6.61632812 14.30398438 6.12890625 15.13671875 C5.75636719 15.75160156 5.38382813 16.36648438 5 17 C0.05436862 17.49456314 -2.86965706 16.3260355 -7.0703125 13.97265625 C-11.79485103 11.5912593 -16.80980525 11.48727712 -22 12 C-26.06662662 13.55271198 -27.57519602 14.36279402 -30 18 C-30.64216183 22.05457991 -30.74905624 25.74022359 -28.625 29.3125 C-23.80278218 32.41249717 -18.50207177 34.24608627 -13.03125 35.89453125 C-4.57951531 38.45401276 3.04860007 42.2784189 9 49 C12.59663836 56.32648555 13.31403204 63.78099138 11.30859375 71.74609375 C8.15926255 80.40346026 3.43204772 85.66378627 -4.65625 89.95703125 C-15.33759149 94.71022822 -27.35501056 94.48070147 -38.2265625 90.35546875 C-42.86311406 88.08943581 -46.9544525 85.18631617 -51 82 C-50.21132867 77.46127384 -49.10790326 74.51683789 -46 71 C-41.38527299 70.02380775 -38.68255385 70.9607206 -34.8125 73.375 C-34.17957031 73.81585937 -33.54664063 74.25671875 -32.89453125 74.7109375 C-26.86941558 78.81050074 -21.16372496 78.72972105 -14 78 C-10.72612775 76.82600515 -8.70047736 75.16827868 -6.8828125 72.13671875 C-5.92535302 69.81932789 -5.63617874 68.06324305 -5.5625 65.5625 C-5.52253906 64.82128906 -5.48257813 64.08007812 -5.44140625 63.31640625 C-6.28702956 59.80973056 -8.07788526 57.93948476 -11 56 C-15.63077567 54.0269843 -20.4623382 52.66245187 -25.27734375 51.21484375 C-34.1108752 48.38580427 -41.22480921 44.46716552 -46.0625 36.3125 C-49.09532778 29.41780154 -49.1741378 21.92412126 -46.9375 14.75 C-43.33684153 6.69457338 -36.98453547 1.43881103 -29 -2 C-20.3344756 -4.97049636 -8.10795266 -3.93725916 0 0 Z " fill="#280C4B" transform="translate(851,524)"/>
<path d="M0 0 C5.28 0 10.56 0 16 0 C16 11.88 16 23.76 16 36 C18.31 34.35 20.62 32.7 23 31 C29.28555801 28.00007459 36.45141136 28.37377848 43.1875 29.5625 C49.46649042 32.77176177 54.52160856 37.29376433 57 44 C57.79874306 47.38287462 58.12268577 50.50209406 58.11352539 53.97387695 C58.11344986 54.93449539 58.11337433 55.89511383 58.11329651 56.88484192 C58.10813522 57.9089769 58.10297394 58.93311188 58.09765625 59.98828125 C58.0962413 61.04661667 58.09482635 62.10495209 58.09336853 63.19535828 C58.08778159 66.56776789 58.07523144 69.94011054 58.0625 73.3125 C58.05748331 75.60221258 58.0529207 77.89192621 58.04882812 80.18164062 C58.03781643 85.78778612 58.02056072 91.39388172 58 97 C52.72 97 47.44 97 42 97 C41.98541748 95.60765137 41.97083496 94.21530273 41.95581055 92.78076172 C41.89773456 87.6032575 41.82050158 82.42618393 41.73754883 77.24902344 C41.70434334 75.01048789 41.67629784 72.77186951 41.65356445 70.53320312 C41.61993855 67.31083961 41.56761728 64.08923226 41.51171875 60.8671875 C41.50532883 59.87008759 41.4989389 58.87298767 41.49235535 57.84567261 C41.37987021 52.50092612 41.02021641 48.6081556 38 44 C34.63414839 41.3554023 31.13996 41.586004 27 42 C23.18150239 43.4638725 19.90170547 45.09829453 17 48 C16.66947545 50.18124591 16.66947545 50.18124591 16.68115234 52.72509766 C16.66128265 53.70596344 16.64141296 54.68682922 16.62094116 55.69741821 C16.60361435 57.28965714 16.60361435 57.28965714 16.5859375 58.9140625 C16.56657135 59.99883881 16.5472052 61.08361511 16.5272522 62.20126343 C16.46733574 65.67576159 16.42102261 69.15029267 16.375 72.625 C16.33683135 74.97657718 16.29778029 77.32814021 16.2578125 79.6796875 C16.16162423 85.4530105 16.0776378 91.22639894 16 97 C10.72 97 5.44 97 0 97 C0 64.99 0 32.98 0 0 Z " fill="#280C4A" transform="translate(721,519)"/>
<path d="M0 0 C6.70549423 4.94763029 10.3591317 10.83773204 12 19 C12.28430687 23.359372 12.24952599 27.6402264 12 32 C9.69179492 33.15410254 8.39215724 33.1210297 5.82568359 33.11352539 C4.53457169 33.11341209 4.53457169 33.11341209 3.21737671 33.11329651 C2.28712677 33.10813522 1.35687683 33.10297394 0.3984375 33.09765625 C-0.55316254 33.0962413 -1.50476257 33.09482635 -2.48519897 33.09336853 C-5.53183097 33.08776012 -8.57839013 33.07520619 -11.625 33.0625 C-13.68749894 33.05748608 -15.74999903 33.05292299 -17.8125 33.04882812 C-22.87502817 33.03778796 -27.93750173 33.02051767 -33 33 C-32.39200355 34.93738924 -31.77424032 36.87171533 -31.15234375 38.8046875 C-30.80937256 39.88218262 -30.46640137 40.95967773 -30.11303711 42.06982422 C-28.36727265 46.66571477 -25.8807584 48.93254253 -21.6875 51.3125 C-14.56856231 53.13362359 -9.94822425 51.76644267 -3.390625 48.98046875 C-0.11747172 47.63804804 2.4434567 46.86052771 6 47 C8.17267054 48.81423505 9.39300416 50.61385467 11 53 C8.85875067 58.2066168 4.77726742 60.35890907 0 63 C-8.35863934 66.2261415 -20.62847442 66.86920198 -29 63.375 C-31.046875 62.2578125 -31.046875 62.2578125 -33 61 C-34.05960937 60.34644531 -34.05960937 60.34644531 -35.140625 59.6796875 C-42.36204847 54.78516715 -46.25259753 48.26472187 -48.4921875 39.8984375 C-50.40446566 28.98374215 -49.86455703 18.01989293 -43.421875 8.72265625 C-32.73592171 -4.20157104 -15.07783914 -9.24041183 0 0 Z " fill="#280B4A" transform="translate(498,552)"/>
<path d="M0 0 C2.45312017 1.88092837 4.53972022 3.88189007 6.57421875 6.20703125 C7.13109375 6.82578125 7.68796875 7.44453125 8.26171875 8.08203125 C12.16114198 14.39538315 11.8425689 21.21736547 11.76953125 28.390625 C11.76670135 29.44613052 11.76387146 30.50163605 11.76095581 31.58912659 C11.7498129 34.94104629 11.72471899 38.29269309 11.69921875 41.64453125 C11.68918135 43.92512633 11.68005683 46.20572563 11.671875 48.48632812 C11.64989282 54.06000006 11.61540348 59.63346947 11.57421875 65.20703125 C7.94421875 65.20703125 4.31421875 65.20703125 0.57421875 65.20703125 C-0.74578125 62.89703125 -2.06578125 60.58703125 -3.42578125 58.20703125 C-4.01746094 58.61695313 -4.60914063 59.026875 -5.21875 59.44921875 C-6.40404297 60.25746094 -6.40404297 60.25746094 -7.61328125 61.08203125 C-8.39058594 61.61570312 -9.16789063 62.149375 -9.96875 62.69921875 C-14.8492941 65.69427443 -18.62408783 66.50083681 -24.36328125 66.51953125 C-25.54792969 66.53628906 -26.73257813 66.55304688 -27.953125 66.5703125 C-32.41369021 66.10368419 -35.69982555 64.77798607 -39.03515625 61.7421875 C-43.02088495 56.59622955 -44.99267806 53.10453953 -44.7890625 46.578125 C-43.98369681 41.32159839 -41.38076478 37.81317014 -37.32421875 34.48046875 C-27.32029038 27.86549331 -16.16617867 26.63587678 -4.42578125 27.20703125 C-4.68115697 25.10093265 -4.95563499 22.99714371 -5.23828125 20.89453125 C-5.38910156 19.72277344 -5.53992188 18.55101562 -5.6953125 17.34375 C-6.55690048 13.53892313 -6.55690048 13.53892313 -9.42578125 11.20703125 C-16.44482937 10.0371899 -22.19693823 11.14397816 -28.4609375 14.29296875 C-31.36065159 15.64194111 -33.30804135 15.93208704 -36.42578125 15.20703125 C-39.06486917 12.08179556 -40.42578125 10.34237272 -40.42578125 6.20703125 C-30.51938408 -2.98151105 -11.97164404 -7.34918712 0 0 Z " fill="#290D4B" transform="translate(574.42578125,550.79296875)"/>
<path d="M0 0 C2.79947917 0.06510417 5.59895833 0.13020833 8.3984375 0.1953125 C8.3984375 7.1253125 8.3984375 14.0553125 8.3984375 21.1953125 C14.0084375 21.1953125 19.6184375 21.1953125 25.3984375 21.1953125 C25.3984375 24.8253125 25.3984375 28.4553125 25.3984375 32.1953125 C19.7884375 32.1953125 14.1784375 32.1953125 8.3984375 32.1953125 C8.7284375 46.0553125 9.0584375 59.9153125 9.3984375 74.1953125 C15.8334375 73.7003125 15.8334375 73.7003125 22.3984375 73.1953125 C27.3984375 80.9453125 27.3984375 80.9453125 27.3984375 83.1953125 C19.53018217 87.9779775 12.65703894 89.0998163 3.3984375 88.1953125 C-1.87206305 85.65417831 -5.3913291 82.02673084 -7.69873047 76.62841797 C-8.85743706 72.22232491 -8.85092719 68.17452273 -8.796875 63.640625 C-8.7940451 62.73907684 -8.79121521 61.83752869 -8.78829956 60.90866089 C-8.77715689 58.04573974 -8.7520633 55.18313816 -8.7265625 52.3203125 C-8.71652505 50.37240037 -8.70740054 48.42448331 -8.69921875 46.4765625 C-8.67723693 41.7160238 -8.642748 36.95572223 -8.6015625 32.1953125 C-9.9009375 32.2159375 -11.2003125 32.2365625 -12.5390625 32.2578125 C-13.89321883 32.27930704 -15.24912333 32.26679449 -16.6015625 32.1953125 C-17.6015625 31.1953125 -17.6015625 31.1953125 -17.69921875 29.12890625 C-17.66666667 26.81770833 -17.63411458 24.50651042 -17.6015625 22.1953125 C-13.9715625 21.8653125 -10.3415625 21.5353125 -6.6015625 21.1953125 C-6.6428125 20.1021875 -6.6840625 19.0090625 -6.7265625 17.8828125 C-6.7265625 0.50499718 -6.7265625 0.50499718 0 0 Z " fill="#2B0F4D" transform="translate(1069.6015625,528.8046875)"/>
<path d="M0 0 C2.79947917 0.06510417 5.59895833 0.13020833 8.3984375 0.1953125 C8.3984375 7.1253125 8.3984375 14.0553125 8.3984375 21.1953125 C14.0084375 21.1953125 19.6184375 21.1953125 25.3984375 21.1953125 C25.3984375 24.8253125 25.3984375 28.4553125 25.3984375 32.1953125 C19.7884375 32.1953125 14.1784375 32.1953125 8.3984375 32.1953125 C8.7284375 46.0553125 9.0584375 59.9153125 9.3984375 74.1953125 C15.8334375 73.7003125 15.8334375 73.7003125 22.3984375 73.1953125 C27.3984375 80.9453125 27.3984375 80.9453125 27.3984375 83.1953125 C19.53018217 87.9779775 12.65703894 89.0998163 3.3984375 88.1953125 C-1.87206305 85.65417831 -5.3913291 82.02673084 -7.69873047 76.62841797 C-8.85743706 72.22232491 -8.85092719 68.17452273 -8.796875 63.640625 C-8.7940451 62.73907684 -8.79121521 61.83752869 -8.78829956 60.90866089 C-8.77715689 58.04573974 -8.7520633 55.18313816 -8.7265625 52.3203125 C-8.71652505 50.37240037 -8.70740054 48.42448331 -8.69921875 46.4765625 C-8.67723693 41.7160238 -8.642748 36.95572223 -8.6015625 32.1953125 C-9.9009375 32.2159375 -11.2003125 32.2365625 -12.5390625 32.2578125 C-13.89321883 32.27930704 -15.24912333 32.26679449 -16.6015625 32.1953125 C-17.6015625 31.1953125 -17.6015625 31.1953125 -17.69921875 29.12890625 C-17.66666667 26.81770833 -17.63411458 24.50651042 -17.6015625 22.1953125 C-13.9715625 21.8653125 -10.3415625 21.5353125 -6.6015625 21.1953125 C-6.6428125 20.1021875 -6.6840625 19.0090625 -6.7265625 17.8828125 C-6.7265625 0.50499718 -6.7265625 0.50499718 0 0 Z " fill="#2B0F4D" transform="translate(671.6015625,528.8046875)"/>
<path d="M0 0 C5.28 0 10.56 0 16 0 C16 32.01 16 64.02 16 97 C10.72 97 5.44 97 0 97 C0 64.99 0 32.98 0 0 Z " fill="#290C4B" transform="translate(615,519)"/>
<path d="M0 0 C4.66435255 2.5521929 6.66693695 4.93640522 8.39453125 9.95703125 C9.39551942 14.16118158 9.69664349 17.94871166 9.6875 22.25 C9.68617065 23.37269287 9.68617065 23.37269287 9.68481445 24.51806641 C9.54534906 31.00143724 8.32932001 35.47388585 3.84765625 40.43359375 C0.67554646 43.28284249 -3.05701363 43.75620657 -7.1875 44.125 C-12.29653888 43.66883581 -15.3649753 42.1717615 -18.9375 38.5 C-22.70242901 32.71814473 -23.07758185 27.13926474 -23.125 20.4375 C-23.15787109 19.62539063 -23.19074219 18.81328125 -23.22460938 17.9765625 C-23.27981514 11.71321745 -21.60365748 7.6878075 -17.6875 2.8125 C-12.41033304 -1.99903458 -6.64595683 -2.14022339 0 0 Z " fill="#FCFBFC" transform="translate(1006.6875,561.1875)"/>
<path d="M0 0 C4.48445812 2.37950839 6.10332928 5.37423085 8 10 C8.44708581 13.09267218 8.47540297 16.12901439 8.4375 19.25 C8.43210205 20.09175781 8.4267041 20.93351563 8.42114258 21.80078125 C8.2502803 28.79195241 7.27798618 35.23995703 2.5390625 40.67578125 C-0.47120102 43.26583032 -4.02364643 43.87264953 -7.875 44.375 C-12.14138238 43.86303411 -16.88448431 42.11551569 -20 39 C-20.29117038 34.51376471 -20.31407181 30.02181099 -20.35009766 25.52734375 C-20.36662263 24.01611901 -20.39386761 22.50497131 -20.43212891 20.99414062 C-20.48707769 18.81339045 -20.50879904 16.63447551 -20.5234375 14.453125 C-20.54325684 13.14504883 -20.56307617 11.83697266 -20.58349609 10.48925781 C-19.85299049 6.12089544 -18.38656414 4.75434736 -15 2 C-10.32779504 -1.11480331 -5.46972029 -0.59212128 0 0 Z " fill="#FDFCFD" transform="translate(923,561)"/>
<path d="M0 0 C4.41884299 2.16925019 7.05081082 4.45189192 9 9 C9 10.98 9 12.96 9 15 C-0.9 15 -10.8 15 -21 15 C-17.60550459 4.81651376 -17.60550459 4.81651376 -12 1 C-8.28763586 -0.85618207 -4.05156912 -0.44809981 0 0 Z " fill="#FBFAFB" transform="translate(486,560)"/>
<path d="M0 0 C1.19762765 10.42934079 1.19762765 10.42934079 -1.4296875 13.875 C-6.42768753 17.2471446 -12.04143316 18.20476175 -18 18 C-21.0625 17.1875 -21.0625 17.1875 -23 16 C-24.54586876 12.90826248 -24.29359521 10.40570448 -24 7 C-18.7847293 0.20510404 -8.08520012 -0.56408373 0 0 Z " fill="#FCFBFC" transform="translate(570,588)"/>
<path d="M0 0 C2.75329021 1.79562405 4.52627461 3.05254922 6 6 C6.39447548 10.18144011 6.45035186 12.30946048 4.125 15.875 C1.21289342 18.78710658 0.3997223 18.96068305 -3.8125 19.375 C-7.23041924 19.31907041 -7.97465048 19.0177986 -10.9375 16.9375 C-13.40599406 13.42176604 -14 11.28616677 -14 7 C-12.78588734 4.12447001 -11.73889186 2.5541689 -9.25 0.6875 C-5.9789382 -0.31199111 -3.40257412 -0.3581657 0 0 Z " fill="#F1AB8F" transform="translate(266,666)"/>
<path d="M0 0 C2.91966192 2.28495281 4.59188033 4.0052083 6 7.4375 C6 10.93216459 4.77987776 13.03353707 3 16 C0.14166714 18.85833286 -2.01515461 18.80075773 -6 19 C-10.01519063 17.48483372 -11.60368353 16.5944747 -14 13 C-14.34061873 9.9830912 -14.57212107 7.90592185 -14 5 C-9.52139324 -0.53932942 -6.92988354 -1.64437915 0 0 Z " fill="#F1AB8F" transform="translate(209,670)"/>
<path d="M0 0 C2.63599659 1.68974141 3.68946026 2.87975663 4.52734375 5.90234375 C5.02491991 8.90457296 5.15914155 11.3457514 4.4375 14.3125 C2.25625771 16.87308878 0.14460891 17.85100828 -3 19 C-6.62078671 18.92610639 -8.6517529 18.19347061 -11.8125 16.4375 C-14.40369263 13.55017107 -14.8891709 11.76293502 -15.13671875 7.96484375 C-14.92745214 4.95738362 -13.93641716 3.27028219 -12 1 C-8.42032521 -1.91677205 -4.20622053 -1.16599542 0 0 Z " fill="#F1AB8F" transform="translate(157,647)"/>
<path d="M0 0 C3.64184981 2.55704348 4.77792202 4.22272709 6 8.5 C6 12.41354478 5.35967923 13.94115656 3 17 C0.33946492 19.66053508 -1.27055195 19.78483954 -5 20 C-9.23490023 18.67140385 -10.66075396 17.55127481 -13 13.75 C-14.18984108 9.28809597 -13.85595149 7.19606424 -12 3 C-8.87323466 -0.72806637 -4.57396182 -0.95290871 0 0 Z " fill="#F1AB8F" transform="translate(110,547)"/>
<path d="M0 0 C2.83746826 3.05027838 3.87908749 4.99239577 4.375 9.125 C3.82909767 13.31025123 3.111689 15.135353 -0.25 17.75 C-3.5780869 19.26276677 -5.38150175 19.59077522 -9 19 C-12.61914281 16.67828574 -14.5876676 15.13997781 -16.0625 11.0625 C-15.9839902 7.21551981 -15.13061342 5.19592014 -13 2 C-9.00981809 -1.53416112 -4.89481149 -1.83938636 0 0 Z " fill="#F1AB8F" transform="translate(129,494)"/>
<path d="M0 0 C2.75329021 1.79562405 4.52627461 3.05254922 6 6 C6.69269949 13.04244482 6.69269949 13.04244482 3.875 16.9375 C0.64791407 19.25258338 -1.03760154 20 -5 20 C-8.16665125 18.84295435 -10.27672193 17.92053572 -12.375 15.25 C-13.28311671 11.98077984 -13.35569512 9.37910365 -13 6 C-9.30920537 0.34078157 -6.6962915 -0.56748233 0 0 Z " fill="#F1AB8F" transform="translate(120,602)"/>
<path d="M0 0 C2.45891648 2.5818623 3.85113396 4.42019709 4.19140625 8.03125 C3.96061358 11.77988253 3.34304038 13.59642308 0.875 16.5 C-3.32036752 18.6888874 -6.71264022 18.57183994 -11.25 17.4375 C-14.11046252 15.08783436 -14.89956282 12.47506479 -16 9 C-15.92707329 5.28073777 -15.48226826 3.61530778 -13.1875 0.6875 C-8.57943758 -2.86729101 -5.34863719 -2.1967617 0 0 Z " fill="#F1AB8F" transform="translate(327,483)"/>
<path d="M0 0 C2.8100346 1.79363911 4.50940468 3.01880935 6 6 C6.41204834 10.63554388 5.87454146 13.30416098 3 17 C-0.01588334 18.90510832 -2.04226845 19.2234915 -5.5625 18.8125 C-6.32691406 18.73644531 -7.09132812 18.66039062 -7.87890625 18.58203125 C-10.43522237 17.88057434 -11.40470401 17.10112155 -13 15 C-14.22720771 10.0093553 -14.61045539 8.15776021 -12.1875 3.5625 C-8.69584058 -0.52772961 -5.18736537 -0.74531112 0 0 Z " fill="#F1AB8F" transform="translate(168,454)"/>
<path d="M0 0 C2.47888838 1.9280243 3.43312132 2.7275489 4.25 5.75 C4.40114094 10.06196219 3.97003745 12.87722733 1.1875 16.25 C-2.6311692 18.19995874 -5.54709575 18.5651087 -9.75 17.75 C-12.75697829 16.21452173 -14.28577667 15.13113648 -15.37890625 11.87890625 C-16.01444226 8.33997416 -15.95088994 6.23636512 -14.5625 2.875 C-10.52564758 -1.85786145 -5.68498388 -2.58408358 0 0 Z " fill="#F1AB8F" transform="translate(224.75,438.25)"/>
<path d="M0 0 C2.97717008 1.98478006 4.62826444 3.36831119 5.44140625 6.9375 C5.66684799 10.77728188 5.23190202 12.63668683 3.125 15.9375 C0.20157849 18.77493852 -0.63926349 18.96451772 -4.8125 19.375 C-8.2013027 19.31327317 -9.01699814 18.98866791 -12 17 C-14.23495494 13.64756759 -14.67920629 11.87083725 -14.43359375 7.93359375 C-13.75194607 4.89381354 -12.19767713 3.13303956 -10 1 C-6.76823243 -0.61588379 -3.49384717 -0.57451407 0 0 Z " fill="#F1AB8F" transform="translate(316,637)"/>
<path d="M0 0 C2.55386855 2.35741713 3.69912523 4.21772561 4.9375 7.4375 C5.02758549 11.13100523 4.10492939 12.97416401 2 16 C-1.25 18.0625 -1.25 18.0625 -5 19 C-8.69398189 17.9533718 -11.09246473 16.81970927 -13.9375 14.25 C-15.49398717 10.95390952 -15.44210139 8.59996843 -15 5 C-11.17392266 -1.06895027 -6.79354951 -1.99971417 0 0 Z " fill="#F1AB8F" transform="translate(281,448)"/>
<path d="M0 0 C2 1.625 2 1.625 3 4 C2.93439072 7.739729 2.76345433 10.0603639 0.375 13 C-3.11581787 14.46981805 -5.39148956 13.98413921 -9 13 C-11 11.375 -11 11.375 -12 9 C-11.93439072 5.260271 -11.76345433 2.9396361 -9.375 0 C-5.88418213 -1.46981805 -3.60851044 -0.98413921 0 0 Z " fill="#F06064" transform="translate(159,513)"/>
<path d="M0 0 C1.875 1.125 1.875 1.125 3 3 C3.5 6.4375 3.5 6.4375 3 10 C0.9375 12.5 0.9375 12.5 -2 14 C-5.625 14.0625 -5.625 14.0625 -9 13 C-11.0625 10.8125 -11.0625 10.8125 -12 8 C-11.38464753 4.58137518 -10.57762097 2.63950893 -8.25 0.0625 C-5.10455793 -1.42284764 -3.29055322 -0.98016479 0 0 Z " fill="#F05A60" transform="translate(258,638)"/>
<path d="M0 0 C2.375 1.625 2.375 1.625 4 4 C4.0625 7.5625 4.0625 7.5625 3 11 C0.17708663 13.58094937 -1.30522028 14.01389559 -5.125 13.9375 C-8 13 -8 13 -9.9375 11.3125 C-11.40109489 8.12702876 -10.98928968 6.32118677 -10 3 C-6.96437816 -0.82752319 -4.64877965 -1.43890799 0 0 Z " fill="#F05960" transform="translate(179,625)"/>
<path d="M0 0 C1.875 0.3125 1.875 0.3125 3.875 1.375 C5.44146819 4.41003213 5.1739878 6.96383668 4.875 10.3125 C2.875 13.3125 2.875 13.3125 -1 14.25 C-4.10641744 14.52110552 -4.8843275 14.46292031 -7.625 12.75 C-9.54237542 9.63426494 -9.65052749 7.91611708 -9.125 4.3125 C-7.22664871 -0.19608432 -4.46900058 -0.26288239 0 0 Z " fill="#F0575F" transform="translate(293.125,617.6875)"/>
<path d="M0 0 C0.70125 0.06703125 1.4025 0.1340625 2.125 0.203125 C4 0.75 4 0.75 6 3.75 C6.164895 6.52573258 5.78836812 9.08566104 5 11.75 C2.6791736 13.8129568 1.02578199 13.74736918 -2.0625 14.0625 C-5 13.75 -5 13.75 -6.8125 12.5625 C-8.36927163 10.18637488 -8.8643141 8.59940381 -9 5.75 C-6.73995136 1.01466 -5.22049414 -0.57578979 0 0 Z " fill="#F0585F" transform="translate(185,483.25)"/>
<path d="M0 0 C2 1.625 2 1.625 3 4 C3 7.5625 3 7.5625 2 11 C-0.1875 13.0625 -0.1875 13.0625 -3 14 C-6.41862482 13.38464753 -8.36049107 12.57762097 -10.9375 10.25 C-12.43556149 7.0776345 -12.05481823 5.30509711 -11 2 C-7.74677693 -1.87884289 -4.6246188 -1.26125967 0 0 Z " fill="#F0585F" transform="translate(269,479)"/>
<path d="M0 0 C2.5 1.5 2.5 1.5 4 4 C4.18239848 6.97721386 3.72078527 9.02075423 3 12 C-0.49124017 14.32749345 -1.89222251 14.50299316 -6 14 C-8.375 12.4375 -8.375 12.4375 -10 10 C-10.42519574 6.53769185 -10.63902633 4.1652833 -8.9375 1.0625 C-5.8347167 -0.63902633 -3.46230815 -0.42519574 0 0 Z " fill="#F0575F" transform="translate(301,504)"/>
<path d="M0 0 C3.875 0.9375 3.875 0.9375 5.875 3.9375 C6.40782588 9.90514986 6.40782588 9.90514986 4.875 12.875 C1.63395557 14.59680485 -1.54922767 14.60050779 -5.125 13.9375 C-7.8173481 11.74996717 -8.06436827 10.35326045 -8.5625 6.9375 C-8.125 3.9375 -8.125 3.9375 -6.625 1.5 C-3.8843275 -0.21292031 -3.10641744 -0.27110552 0 0 Z " fill="#F0565E" transform="translate(222.125,468.0625)"/>
<path d="M0 0 C3.33794538 1.16102448 4.3364746 1.83747557 5.875 5 C6.4375 8 6.4375 8 5.875 11 C2.95871813 13.64499984 1.18740823 15.03052112 -2.8125 14.9375 C-5.41698566 13.88162744 -6.61456086 13.3849039 -8.125 11 C-8.625 7.5625 -8.625 7.5625 -8.125 4 C-5.45946825 0.86408029 -4.13747529 0 0 0 Z " fill="#F0565E" transform="translate(150.125,591)"/>
<path d="M0 0 C2.59347818 0.47761083 3.46154897 1.21541808 4.97265625 3.36328125 C5.1875 5.5546875 5.1875 5.5546875 4.91015625 7.92578125 C4.83667969 8.71082031 4.76320312 9.49585938 4.6875 10.3046875 C3.97265625 12.36328125 3.97265625 12.36328125 2.140625 13.6484375 C-1.19883263 14.74955596 -3.6689332 14.23398028 -7.02734375 13.36328125 C-8.52734375 11.73828125 -8.52734375 11.73828125 -9.02734375 9.36328125 C-8.51914662 1.99442286 -7.53967857 0.18320714 0 0 Z " fill="#F0565E" transform="translate(142.02734375,549.63671875)"/>
<path d="M0 0 C2 2 2 2 2.3125 5.375 C2 9 2 9 0.9375 11.4375 C-2.01179883 13.81596679 -4.33403891 13.39278155 -8 13 C-11 11 -11 11 -11.9375 7.125 C-12.19237686 4.08310011 -12.10589233 3.18876459 -10.5625 0.4375 C-6.66876253 -1.74679175 -4.32151439 -0.97582583 0 0 Z " fill="#F0555E" transform="translate(217,641)"/>
</svg>
